<svg width="76" height="26" viewBox="0 0 76 26" fill="none" xmlns="http://www.w3.org/2000/svg">
<path d="M68.615 6.20702L68.2392 8.24518C68.1004 9.00166 67.6369 9.00166 67.3069 9.00166C66.9937 9.00166 66.5244 9.00166 66.6646 8.24518L67.0394 6.20702C67.185 5.45199 67.5487 5.45054 67.9631 5.45054C68.351 5.45054 68.7543 5.45199 68.6155 6.20702H68.615ZM70.2677 0.0106326C69.9015 0.0106326 69.5546 0.307443 69.492 0.674119L68.9253 3.71257C68.9253 3.71257 68.6714 2.94934 67.5266 2.94934H64.0444C62.4991 2.94934 62.0182 3.65571 61.8231 4.69936L60.8912 9.75284C60.6961 10.7951 61.0454 11.5033 62.4842 11.5033L65.9592 11.5019C67.118 11.5019 67.6538 10.6529 67.6538 10.6529L67.4981 11.5019L72.567 11.5029C72.9332 11.5029 73.2811 11.2041 73.3428 10.8379L75.3381 0.0101508H70.2663L70.2677 0.0106326ZM56.1057 0.0101508C55.7395 0.0101508 55.3925 0.307443 55.3309 0.674119L53.3361 11.5033H58.4127C58.7789 11.5033 59.1268 11.2046 59.1884 10.8384L61.1818 0.0106326H56.1052L56.1057 0.0101508ZM47.6938 6.20654L47.318 8.2447C47.1782 9.00118 46.7147 9.00118 46.3856 9.00118C46.0724 9.00118 45.6026 9.00118 45.7428 8.2447L46.1187 6.20654C46.2642 5.45103 46.627 5.45006 47.0414 5.45006C47.4302 5.45006 47.8326 5.45103 47.6938 6.20654ZM51.4935 2.94934H43.4758C41.9426 2.94934 41.4617 3.65523 41.2666 4.69936L40.3429 9.75236C40.1405 10.7946 40.4899 11.5024 41.9282 11.5024L49.9237 11.5033C51.4786 11.5019 51.9595 10.7941 52.1609 9.75188L53.0942 4.69888C53.2811 3.65475 52.9304 2.94838 51.4935 2.94838V2.94934ZM36.9788 2.77974C34.1803 2.77974 33.1395 3.74822 33.1395 3.74822L33.2874 2.94838H28.6112C28.245 2.94838 27.8981 3.24615 27.8364 3.61331L26.3596 11.5024H30.9987C31.3649 11.5024 31.7118 11.2056 31.7745 10.8389L32.6061 6.34724C32.6061 6.34724 32.7728 5.44765 33.6295 5.44765C34.3397 5.44765 34.227 6.06103 34.227 6.06103L33.2151 11.5033H37.8648C38.232 11.5033 38.5794 11.2061 38.6406 10.8394L39.6366 5.4332C39.9401 3.73714 38.7851 2.78022 36.9792 2.78022L36.9788 2.77974ZM23.9986 4.14911L24.2203 2.94934H19.1417C18.7755 2.94934 18.4286 3.24615 18.3674 3.61283L16.9142 11.5029H21.9879C22.3541 11.5029 22.701 11.2056 22.7622 10.8394L23.2219 8.22976C23.365 7.37692 24.1711 6.68548 25.024 6.68548C25.3627 6.68548 25.6576 6.7939 25.8807 6.97844L26.6347 2.91995C24.6669 3.17436 23.9991 4.14863 23.9991 4.14863L23.9986 4.14911ZM10.4499 6.73511H8.68832C8.68832 6.73511 9.65777 4.47242 10.063 3.59066C10.2509 3.21001 10.6557 2.93537 11.0768 2.93537H11.3071L10.4504 6.73511H10.4499ZM8.299 0.00244141C6.9595 0.00244141 5.67879 0.882753 5.0948 2.09698L0.661926 11.5024H5.87827C6.30035 11.5024 6.70461 11.222 6.88385 10.8375L7.44423 9.55433L9.82449 9.5524L9.3918 11.5009L14.7705 11.5019V11.5009C15.1367 11.5009 15.4846 11.2036 15.5463 10.8375L17.5406 0.00244141H8.299Z" fill="#1B1B1B"/>
<path d="M60.8215 17.443H66.577L62.8394 21.3868L65.2847 25.997H58.857L57.8042 22.8106L57.3368 25.333C57.2752 25.6997 56.9283 25.997 56.5621 25.997H51.4845L53.5058 15.1682C53.5675 14.8016 53.9153 14.5047 54.2815 14.5047H59.3312L58.3 20.1037L60.2115 17.7475C60.3604 17.5644 60.5864 17.443 60.8215 17.443Z" fill="#1B1B1B"/>
<path d="M49.3013 17.4434L49.0809 18.6416C49.1069 18.6047 49.7867 17.6635 51.7158 17.4141L50.9617 21.4725C50.7386 21.288 50.4437 21.1796 50.1055 21.1796C49.2526 21.1796 48.446 21.871 48.3034 22.7239L47.8447 25.3335C47.7821 25.6997 47.4352 25.997 47.069 25.997H41.9962L43.4489 18.1069C43.5116 17.7403 43.8585 17.4434 44.2247 17.4434H49.3013Z" fill="#1B1B1B"/>
<path d="M22.5995 15.1682C22.6612 14.8016 23.0081 14.5043 23.3743 14.5043V14.5047H28.4518L26.4571 25.3325C26.3959 25.6987 26.0475 25.9975 25.6813 25.9975H20.6047L22.5995 15.1682Z" fill="#1B1B1B"/>
<path d="M12.9551 14.5038V14.5052L12.9556 14.5043L21.2383 14.5033L20.8442 16.6783C20.7825 17.0459 20.4356 17.3432 20.0694 17.3432H17.1027C16.736 17.3432 16.3891 17.6405 16.3279 18.0082L15.5016 22.4911C15.4404 22.8578 15.6881 23.1546 16.0543 23.1546L19.6439 23.1566L19.2213 25.452L19.2165 25.4785C19.151 25.7734 18.8903 25.9941 18.5757 25.9975H18.5651L10.8928 25.9965C9.93399 25.9965 9.28737 25.2193 9.44733 24.2619L10.9295 16.2384C11.0904 15.2805 11.9972 14.5038 12.9551 14.5038Z" fill="#1B1B1B"/>
<path fill-rule="evenodd" clip-rule="evenodd" d="M36.9938 17.442V17.443C36.6276 17.443 36.2807 17.7403 36.219 18.1069L36.2017 18.2062C36.2017 18.2062 35.9396 17.443 34.7947 17.443H31.312C29.7668 17.443 29.2864 18.1493 29.0908 19.193L28.1608 24.2465C27.9633 25.2887 28.315 25.997 29.7528 25.997L33.2278 25.9955C34.3856 25.9955 34.9238 25.1465 34.9238 25.1465L34.7668 25.9955L39.8357 25.9965C40.2019 25.9965 40.5502 25.6978 40.6114 25.3316L42.0641 17.4406H36.9948L36.9938 17.442ZM35.5083 22.7393L35.8832 20.7011C36.0229 19.9461 35.6201 19.9447 35.2313 19.9447C34.8164 19.9447 34.4541 19.9461 34.3085 20.7011L33.9327 22.7393C33.7944 23.4958 34.2618 23.4958 34.575 23.4958C34.9051 23.4958 35.3686 23.4958 35.5083 22.7393Z" fill="#1B1B1B"/>
</svg>
