<svg width="73" height="72" viewBox="0 0 73 72" fill="none" xmlns="http://www.w3.org/2000/svg">
<rect x="0.333313" width="72" height="72" rx="36" fill="#FF733C"/>
<path d="M20.3333 21.5C20.3333 20.6875 20.9583 20 21.8333 20H26.3333C27.0208 20 27.6458 20.5625 27.7708 21.25L27.8958 22H54.1458C55.4583 22 56.4583 23.3125 56.0833 24.5625L52.7083 36.5625C52.4583 37.4375 51.7083 38 50.7708 38H30.9583L31.5208 41H50.8333C51.6458 41 52.3333 41.6875 52.3333 42.5C52.3333 43.375 51.6458 44 50.8333 44H30.2708C29.5833 44 28.9583 43.5 28.8333 42.8125L25.0833 23H21.8333C20.9583 23 20.3333 22.375 20.3333 21.5ZM28.5208 25L30.3958 35H50.0208L52.8333 25H28.5208ZM34.3333 49C34.3333 50.6875 32.9583 52 31.3333 52C29.6458 52 28.3333 50.6875 28.3333 49C28.3333 47.375 29.6458 46 31.3333 46C32.9583 46 34.3333 47.375 34.3333 49ZM46.3333 49C46.3333 47.375 47.6458 46 49.3333 46C50.9583 46 52.3333 47.375 52.3333 49C52.3333 50.6875 50.9583 52 49.3333 52C47.6458 52 46.3333 50.6875 46.3333 49ZM22.8333 26C23.6458 26 24.3333 26.6875 24.3333 27.5C24.3333 28.375 23.6458 29 22.8333 29H17.8333C16.9583 29 16.3333 28.375 16.3333 27.5C16.3333 26.6875 16.9583 26 17.8333 26H22.8333ZM23.8333 31C24.6458 31 25.3333 31.6875 25.3333 32.5C25.3333 33.375 24.6458 34 23.8333 34H17.8333C16.9583 34 16.3333 33.375 16.3333 32.5C16.3333 31.6875 16.9583 31 17.8333 31H23.8333ZM24.8333 36C25.6458 36 26.3333 36.6875 26.3333 37.5C26.3333 38.375 25.6458 39 24.8333 39H17.8333C16.9583 39 16.3333 38.375 16.3333 37.5C16.3333 36.6875 16.9583 36 17.8333 36H24.8333Z" fill="#1B1B1B"/>
</svg>
