<svg width="73" height="72" viewBox="0 0 73 72" fill="none" xmlns="http://www.w3.org/2000/svg">
<rect x="0.666626" width="72" height="72" rx="36" fill="#FF733C"/>
<path d="M20.6666 33C20.6666 28.0625 27.7916 24 36.6666 24C45.4791 24 52.6666 28.0625 52.6666 33V40C52.6666 44.4375 45.4791 48 36.6666 48C27.7916 48 20.6666 44.4375 20.6666 40V33ZM46.4791 36.75C48.9166 35.375 49.6666 33.9375 49.6666 33C49.6666 32.125 48.9166 30.6875 46.4791 29.25C44.1041 27.9375 40.6666 27 36.6666 27C32.6041 27 29.1666 27.9375 26.7916 29.25C24.3541 30.6875 23.6666 32.125 23.6666 33C23.6666 33.9375 24.3541 35.375 26.7916 36.75C29.1666 38.125 32.6041 39 36.6666 39C40.6666 39 44.1041 38.125 46.4791 36.75ZM36.6666 42C35.7916 42 34.9791 42 34.1666 41.9375V44.9375C34.9166 45 35.7916 45 36.6666 45C37.4791 45 38.3541 45 39.1666 44.9375V41.9375C38.2916 42 37.4791 42 36.6666 42ZM28.1666 43.625C29.2916 44.0625 30.6666 44.4375 32.1666 44.6875V41.6875C30.7291 41.4375 29.3541 41.0625 28.1666 40.625V43.625ZM26.1666 39.8125C25.2291 39.375 24.3541 38.8125 23.6666 38.25V40C23.6666 40.4375 24.0416 41.5625 26.1666 42.75V39.8125ZM41.1666 41.6875V44.6875C42.6041 44.4375 43.9791 44.0625 45.1666 43.625V40.625C43.9166 41.0625 42.5416 41.4375 41.1666 41.6875ZM49.6666 38.25C48.9166 38.8125 48.0416 39.375 47.1666 39.8125V42.75C49.2291 41.5625 49.6666 40.4375 49.6666 40V38.25Z" fill="#1B1B1B"/>
</svg>
