<svg width="72" height="72" viewBox="0 0 72 72" fill="none" xmlns="http://www.w3.org/2000/svg">
<rect width="72" height="72" rx="36" fill="#FF733C"/>
<path d="M54.875 37L47.6875 34.1875C47.4375 34.0625 46.875 33.9375 46.25 34.1875L39.0625 37C38.4375 37.25 38 37.875 38 38.5C38 45.4375 42.25 50.25 46.25 51.8125C46.875 52.0625 47.375 51.9375 47.6875 51.8125C50.875 50.625 56 46.3125 56 38.5C56 37.875 55.5625 37.25 54.875 37ZM47 48.9375V37.125L52.9375 39.4375C52.5625 44.875 49.125 47.875 47 48.9375ZM30 36C34.375 36 38 32.4375 38 28C38 23.625 34.375 20 30 20C25.5625 20 22 23.625 22 28C22 32.4375 25.5625 36 30 36ZM30 23C32.75 23 35 25.25 35 28C35 30.8125 32.75 33 30 33C27.1875 33 25 30.8125 25 28C25 25.25 27.1875 23 30 23ZM42.375 51.9375C42.25 52 42.125 52 42 52H18C16.875 52 16 51.125 16 50C16 43.9375 20.875 39 27 39H33C34 39 35.0625 39.1875 36 39.4375C36.0625 40.6875 36.25 41.8125 36.5 42.875C35.4375 42.375 34.25 42 33 42H27C22.875 42 19.5 45.0625 19.0625 49H39.5C40.375 50.1875 41.375 51.125 42.375 51.9375Z" fill="#1B1B1B"/>
</svg>
